<?xml version="1.0" encoding="UTF-8"?>
<svg id="Layer_2" data-name="Layer 2" xmlns="http://www.w3.org/2000/svg" viewBox="0 0 48.07 49.49">
  <g id="Layer_2-2" data-name="Layer 2">
    <g>
      <path d="M46.24,23.9l-7.44-8.04,7.51-4.87c1.42-.92,1.87-2.78,1.04-4.25l-2.89-5.12c-.57-1-1.63-1.62-2.78-1.62H6.39c-1.15,0-2.21.62-2.78,1.62L.72,6.74c-.83,1.47-.37,3.33,1.04,4.25l7.51,4.87L1.83,23.9c-2.69,2.91-2.37,7.48.69,9.98l17.16,14.05c2.53,2.07,6.17,2.07,8.71,0l17.16-14.05c3.06-2.51,3.38-7.08.69-9.98ZM32.77,34.33c0,1.75-1.17,3.29-2.85,3.77-3.83,1.11-7.74,1.13-11.73-.01-1.7-.49-2.88-2.02-2.88-3.78v-12.13c0-1.04.41-2.04,1.15-2.77l4.81-4.81c1.53-1.53,4.01-1.53,5.54,0l4.81,4.81c.73.73,1.15,1.73,1.15,2.77v12.15Z"/>
      <path d="M24.74,25.29c1.48-.85,2.6-2.01,3.38-3.44.43-.78-.01-1.77-.88-1.97-2.12-.47-4.23-.49-6.35-.05-.95.2-1.42,1.28-.88,2.09.84,1.28,1.93,2.37,3.22,3.29.45.32,1.03.35,1.5.08Z"/>
    </g>
  </g>
</svg>