<svg width="20" height="20" viewBox="0 0 20 20" fill="none" xmlns="http://www.w3.org/2000/svg">
<path d="M8.92259 3.08922C9.24802 2.76379 9.24802 2.23613 8.92259 1.9107C8.59716 1.58527 8.0695 1.58527 7.74407 1.9107L2.74407 6.9107C2.41864 7.23613 2.41864 7.76379 2.74407 8.08922C3.0695 8.41465 3.59716 8.41465 3.92259 8.08922L8.92259 3.08922Z" fill="#E3472B"/>
<path d="M12.2558 1.9107C11.9304 1.58527 11.4028 1.58527 11.0773 1.9107C10.7519 2.23613 10.7519 2.76379 11.0773 3.08922L16.0773 8.08922C16.4028 8.41465 16.9304 8.41465 17.2558 8.08922C17.5813 7.76379 17.5813 7.23613 17.2558 6.9107L12.2558 1.9107Z" fill="#E3472B"/>
<path fill-rule="evenodd" clip-rule="evenodd" d="M1.75969 8.33336C1.85098 9.12754 1.92559 9.85578 1.99312 10.5255L2.01953 10.7879C2.09617 11.5499 2.1657 12.2408 2.24219 12.8567C2.4091 14.2004 2.62215 15.3309 3.1157 16.1947C3.65141 17.1322 4.46488 17.6764 5.60387 17.9742C6.68977 18.2582 8.12664 18.3334 9.99996 18.3334C11.8733 18.3334 13.3101 18.2582 14.3961 17.9742C15.535 17.6763 16.3486 17.1322 16.8842 16.1947C17.3778 15.3309 17.5908 14.2004 17.7577 12.8567C17.8342 12.2408 17.9038 11.5501 17.9804 10.7881L18.0068 10.5255C18.0744 9.85574 18.1489 9.12754 18.2403 8.33336H19.1666C19.6269 8.33336 20 7.96027 20 7.50004C20 7.03981 19.6269 6.66672 19.1666 6.66672H17.5108C17.5029 6.6666 17.495 6.6666 17.4871 6.66672H2.51293C2.50504 6.6666 2.49707 6.6666 2.48914 6.66672H0.83332C0.373086 6.66672 0 7.03981 0 7.50004C0 7.96027 0.373086 8.33336 0.83332 8.33336H1.75969ZM3.43715 8.33336C3.52008 9.06606 3.58902 9.74008 3.65137 10.3583L3.67758 10.6187C3.75473 11.3855 3.82219 12.0559 3.89613 12.6512C4.06402 14.0027 4.25277 14.8254 4.56277 15.3679C4.83066 15.8366 5.2225 16.1518 6.02551 16.3618C6.8816 16.5856 8.12328 16.6667 9.99996 16.6667C11.8766 16.6667 13.1183 16.5856 13.9744 16.3618C14.7774 16.1518 15.1692 15.8366 15.4371 15.3679C15.7471 14.8254 15.9359 14.0027 16.1038 12.6512C16.1777 12.0558 16.2452 11.3854 16.3224 10.6186L16.3486 10.3583C16.4109 9.74012 16.4799 9.06609 16.5628 8.3334H3.43715V8.33336Z" fill="#E3472B"/>
<path d="M8.33332 9.99996C7.87309 9.99996 7.5 10.373 7.5 10.8333V14.1666C7.5 14.6268 7.87309 14.9999 8.33332 14.9999C8.79355 14.9999 9.16664 14.6268 9.16664 14.1666V10.8333C9.16668 10.373 8.79359 9.99996 8.33332 9.99996Z" fill="#E3472B"/>
<path d="M11.6667 9.99996C11.2065 9.99996 10.8334 10.373 10.8334 10.8333V14.1666C10.8334 14.6268 11.2065 14.9999 11.6667 14.9999C12.1269 14.9999 12.5 14.6269 12.5 14.1666V10.8333C12.5 10.373 12.1269 9.99996 11.6667 9.99996Z" fill="#E3472B"/>
</svg>
